<?xml version="1.0" encoding="UTF-8" standalone="no"?>
<!-- Created with Inkscape (http://www.inkscape.org/) -->

<svg
   xmlns:dc="http://purl.org/dc/elements/1.1/"
   xmlns:cc="http://creativecommons.org/ns#"
   xmlns:rdf="http://www.w3.org/1999/02/22-rdf-syntax-ns#"
   xmlns:svg="http://www.w3.org/2000/svg"
   xmlns="http://www.w3.org/2000/svg"
   xmlns:xlink="http://www.w3.org/1999/xlink"
   xmlns:sodipodi="http://sodipodi.sourceforge.net/DTD/sodipodi-0.dtd"
   xmlns:inkscape="http://www.inkscape.org/namespaces/inkscape"
   width="744.09448819"
   height="1052.3622047"
   id="svg2"
   version="1.1"
   inkscape:version="0.48.5 r10040"
   sodipodi:docname="Nowy dokument 1">
  <defs
     id="defs4">
    <filter
       height="1.5307459"
       y="-0.26537295"
       width="1.0796119"
       x="-0.039805942"
       id="filter3850"
       inkscape:collect="always">
      <feGaussianBlur
         id="feGaussianBlur3852"
         stdDeviation="16.585809"
         inkscape:collect="always" />
    </filter>
    <linearGradient
       id="linearGradient3905">
      <stop
         style="stop-color:#ff0000;stop-opacity:1;"
         offset="0"
         id="stop3907" />
      <stop
         id="stop3917"
         offset="0.5"
         style="stop-color:#e70000;stop-opacity:1;" />
      <stop
         id="stop3913"
         offset="1"
         style="stop-color:#e20019;stop-opacity:1;" />
    </linearGradient>
    <linearGradient
       inkscape:collect="always"
       xlink:href="#linearGradient3905"
       id="linearGradient3921"
       x1="190.56546"
       y1="131.14864"
       x2="256.31482"
       y2="380.71716"
       gradientUnits="userSpaceOnUse"
       gradientTransform="matrix(0.92375754,0.27170891,-0.27170891,0.92375754,92.224661,-46.86299)" />
    <linearGradient
       inkscape:collect="always"
       xlink:href="#linearGradient3905-8"
       id="linearGradient3921-8"
       x1="190.56546"
       y1="131.14864"
       x2="256.31482"
       y2="380.71716"
       gradientUnits="userSpaceOnUse" />
    <linearGradient
       id="linearGradient3905-8">
      <stop
         style="stop-color:#ff0000;stop-opacity:1;"
         offset="0"
         id="stop3907-2" />
      <stop
         id="stop3917-4"
         offset="0.5"
         style="stop-color:#e70000;stop-opacity:1;" />
      <stop
         id="stop3913-5"
         offset="1"
         style="stop-color:#e20019;stop-opacity:1;" />
    </linearGradient>
    <filter
       inkscape:collect="always"
       id="filter4100">
      <feGaussianBlur
         inkscape:collect="always"
         stdDeviation="2.1948935"
         id="feGaussianBlur4102" />
    </filter>
    <filter
       inkscape:collect="always"
       id="filter4104">
      <feGaussianBlur
         inkscape:collect="always"
         stdDeviation="2.1948935"
         id="feGaussianBlur4106" />
    </filter>
    <filter
       inkscape:collect="always"
       id="filter4108">
      <feGaussianBlur
         inkscape:collect="always"
         stdDeviation="2.1948935"
         id="feGaussianBlur4110" />
    </filter>
    <linearGradient
       id="linearGradient3805">
      <stop
         id="stop3807"
         offset="0"
         style="stop-color:#d6822e;stop-opacity:1;" />
      <stop
         id="stop3809"
         offset="1"
         style="stop-color:#d6822e;stop-opacity:1;" />
    </linearGradient>
  </defs>
  <sodipodi:namedview
     id="base"
     pagecolor="#ffffff"
     bordercolor="#666666"
     borderopacity="1.0"
     inkscape:pageopacity="0.0"
     inkscape:pageshadow="2"
     inkscape:zoom="0.49497475"
     inkscape:cx="394.57633"
     inkscape:cy="512.76069"
     inkscape:document-units="px"
     inkscape:current-layer="layer1-9"
     showgrid="false"
     inkscape:window-width="1920"
     inkscape:window-height="1017"
     inkscape:window-x="-8"
     inkscape:window-y="66"
     inkscape:window-maximized="1" />
  <metadata
     id="metadata7">
    <rdf:RDF>
      <cc:Work
         rdf:about="">
        <dc:format>image/svg+xml</dc:format>
        <dc:type
           rdf:resource="http://purl.org/dc/dcmitype/StillImage" />
        <dc:title></dc:title>
      </cc:Work>
    </rdf:RDF>
  </metadata>
  <g
     inkscape:label="Layer 1"
     inkscape:groupmode="layer"
     id="layer1">
    <g
       id="layer1-9"
       inkscape:label="Layer 1"
       transform="translate(-213.79452,-117.14285)">
      <path
         sodipodi:nodetypes="cssscssscssscsssc"
         inkscape:connector-curvature="0"
         id="rect3035"
         d="m 187.14287,420.93365 c 83.33333,0 166.66667,0 250.00001,0 83.33333,0 166.66667,0 250,0 83.33334,0 166.66668,0 250.00001,0 83.33331,0 166.66671,0 250.00001,0 0,12.5 0,25 0,37.5 0,12.5 0,25 0,37.5 0,12.5 0,25 0,37.5 0,12.5 0,25 0,37.5 -83.3333,0 -166.6667,0 -250.00001,0 -83.33333,0 -166.66667,0 -250.00001,0 -83.33333,0 -166.66667,0 -250,0 -83.33334,0 -166.66667,0 -250.00001,0 0,-12.5 0,-25 0,-37.5 0,-12.5 0,-25 0,-37.5 0,-12.5 0,-25 0,-37.5 0,-12.5 0,-25 0,-37.5 z"
         style="fill:#c97228;fill-opacity:1;stroke:#c97228;stroke-width:30;stroke-linejoin:round;stroke-miterlimit:4;stroke-opacity:1;stroke-dasharray:none"
         inkscape:export-filename="D:\GitHub\Unity-Project-Game\Assets\Textures\HUD\Health section\healthBar.png"
         inkscape:export-xdpi="90"
         inkscape:export-ydpi="90" />
      <rect
         transform="matrix(0.97138151,0,0,0.767753,19.664988,115.17911)"
         y="420.93365"
         x="187.14287"
         height="150"
         width="1000"
         id="rect3035-7"
         style="fill:#dd7700;fill-opacity:1;stroke:none;filter:url(#filter3850)"
         inkscape:export-filename="D:\GitHub\Unity-Project-Game\Assets\Textures\HUD\Health section\healthBar.png"
         inkscape:export-xdpi="90"
         inkscape:export-ydpi="90" />
      <g
         transform="translate(-98.659943,240.3148)"
         id="g3027"
         inkscape:export-filename="D:\GitHub\Unity-Project-Game\Assets\Textures\HUD\Health section\healthBar.png"
         inkscape:export-xdpi="90"
         inkscape:export-ydpi="90">
        <g
           id="layer6"
           inkscape:label="Cień">
          <path
             style="opacity:0.34137932;fill:#000000;fill-opacity:1;stroke:none;filter:url(#filter4108)"
             d="m 288.30105,165.0998 c 21.42068,-11.53618 52.22204,-18.81714 76.3821,-10.10587 26.56163,9.5772 47.51848,35.75462 57.56188,62.14349 5.67461,14.90996 4.18561,32.74588 -0.94827,47.85056 -6.86893,20.2094 -22.40721,36.9667 -38.00754,51.53486 -21.24702,19.84121 -47.27391,34.43532 -73.56223,46.84636 -27.62224,13.04079 -55.13779,22.18825 -87.1253,28.40133 0,0 -28.14638,-33.53959 -40.79589,-51.37814 -15.10069,-21.29523 -30.54988,-42.67729 -41.76954,-66.24923 -8.48979,-17.83664 -16.55055,-36.53727 -18.97619,-56.14183 -1.67731,-13.55646 -1.81573,-28.16923 3.26438,-40.84928 8.83728,-22.05807 24.02141,-44.08252 44.95619,-55.3249 18.31252,-9.8342 42.25739,-12.35907 62.06371,-6.05275 23.93163,7.61984 39.64403,15.84079 56.9567,49.3254 z"
             id="path2996-5-1"
             inkscape:connector-curvature="0"
             sodipodi:nodetypes="caaaaacaaaaaac" />
        </g>
        <g
           id="layer5"
           inkscape:label="Dół">
          <path
             style="fill:#ffffff;fill-opacity:1;stroke:none;filter:url(#filter4104)"
             d="m 286.75858,163.76866 c 20.72968,-11.16404 50.53745,-18.21013 73.91816,-9.77987 25.70479,9.26825 45.98562,34.60124 55.70503,60.13886 5.49156,14.42899 4.0506,31.68956 -0.91768,46.30699 -6.64734,19.55748 -21.68438,35.77423 -36.78148,49.87244 -20.56163,19.20118 -45.74894,33.32451 -71.18925,45.33518 -26.7312,12.62013 -53.35916,21.47251 -84.31481,27.48517 0,0 -27.23842,-32.45767 -39.4799,-49.72079 -14.61357,-20.60828 -29.5644,-41.3006 -40.42213,-64.11216 -8.21593,-17.26126 -16.01666,-35.35864 -18.36405,-54.33079 -1.62321,-13.11916 -1.75716,-27.26054 3.15907,-39.53157 8.55221,-21.34651 23.24653,-42.6605 43.50599,-53.54022 17.7218,-9.51696 40.89425,-11.96039 60.06165,-5.8575 23.15965,7.37404 38.36521,15.32981 55.1194,47.73426 z"
             id="path2996-5"
             inkscape:connector-curvature="0"
             sodipodi:nodetypes="caaaaacaaaaaac" />
        </g>
        <g
           id="layer1-1"
           inkscape:label="Środek">
          <path
             style="fill:url(#linearGradient3921);fill-opacity:1;stroke:none;filter:url(#filter4100)"
             d="m 284.87279,170.3834 c 19.2898,-10.3886 47.02712,-16.94526 68.7838,-9.10057 23.91934,8.62448 42.79147,32.19784 51.83576,55.96161 5.11012,13.42676 3.76925,29.4884 -0.85394,43.09051 -6.18562,18.19901 -20.17818,33.28935 -34.22664,46.40829 -19.13341,17.86746 -42.57121,31.00979 -66.24444,42.1862 -24.87444,11.74353 -49.65282,19.98103 -78.45829,25.57605 0,0 -25.34645,-30.20316 -36.73763,-46.26718 -13.59851,-19.17683 -27.51086,-38.43186 -37.6144,-59.65893 -7.64525,-16.06229 -14.90414,-32.90263 -17.08848,-50.55697 -1.51047,-12.2079 -1.63511,-25.36703 2.93963,-36.7857 7.95817,-19.86379 21.63183,-39.69731 40.48406,-49.82132 16.49085,-8.85591 38.05374,-11.12962 55.88977,-5.45063 21.55098,6.86183 35.70036,14.26499 51.2908,44.41864 z"
             id="path2996"
             inkscape:connector-curvature="0"
             sodipodi:nodetypes="caaaaacaaaaaac" />
        </g>
      </g>
    </g>
  </g>
</svg>
